<svg width="209" height="63" viewBox="0 0 209 63" fill="none" xmlns="http://www.w3.org/2000/svg">
<path d="M196.856 61.8019C196.408 61.8019 196.133 61.5781 196.029 61.1303L193.343 51.3663C193.308 51.1941 193.274 51.108 193.24 51.108C193.171 51.108 193.136 51.2113 193.136 51.4179V61.027C193.136 61.2681 193.067 61.4575 192.93 61.5953C192.792 61.7331 192.602 61.8019 192.361 61.8019H184.199C183.958 61.8019 183.768 61.7331 183.63 61.5953C183.493 61.4575 183.424 61.2681 183.424 61.027V32.7164C183.424 32.4753 183.493 32.2858 183.63 32.1481C183.768 32.0103 183.958 31.9414 184.199 31.9414H195.461C197.459 31.9414 199.232 32.3719 200.782 33.233C202.366 34.094 203.589 35.2822 204.45 36.7976C205.311 38.2786 205.742 39.9834 205.742 41.9122C205.742 43.462 205.449 44.8569 204.863 46.0968C204.278 47.3022 203.451 48.3182 202.384 49.1448C202.28 49.2137 202.246 49.3515 202.28 49.5581L205.948 60.9237C205.983 60.9926 206 61.0959 206 61.2337C206 61.6125 205.759 61.8019 205.277 61.8019H196.856ZM193.446 40.259C193.24 40.259 193.136 40.3623 193.136 40.569V43.4103C193.136 43.617 193.24 43.7203 193.446 43.7203H193.756C195.272 43.7203 196.029 43.152 196.029 42.0155C196.029 40.8445 195.272 40.259 193.756 40.259H193.446Z" fill="#1A1A2E"/>
<path d="M170.119 62.1639C166.709 62.1639 164.006 61.2684 162.008 59.4775C160.011 57.6521 159.012 55.1379 159.012 51.9349V41.8091C159.012 38.5717 160.011 36.0575 162.008 34.2665C164.006 32.4756 166.709 31.5801 170.119 31.5801C173.529 31.5801 176.215 32.4928 178.178 34.3182C180.176 36.1091 181.175 38.6061 181.175 41.8091V51.9349C181.175 55.1379 180.176 57.6521 178.178 59.4775C176.181 61.2684 173.494 62.1639 170.119 62.1639ZM170.119 53.8463C170.601 53.8463 170.946 53.743 171.152 53.5364C171.359 53.2953 171.462 52.8992 171.462 52.3481V41.3958C171.462 40.8448 171.359 40.4659 171.152 40.2593C170.946 40.0182 170.601 39.8977 170.119 39.8977C169.637 39.8977 169.275 40.0182 169.034 40.2593C168.828 40.4659 168.724 40.8448 168.724 41.3958V52.3481C168.724 52.8992 168.828 53.2953 169.034 53.5364C169.275 53.743 169.637 53.8463 170.119 53.8463Z" fill="#1A1A2E"/>
<path d="M157.117 31.9414C157.358 31.9414 157.548 32.0103 157.685 32.1481C157.823 32.2858 157.892 32.4753 157.892 32.7164V39.4841C157.892 39.7251 157.823 39.9146 157.685 40.0523C157.548 40.1901 157.358 40.259 157.117 40.259H151.434C151.228 40.259 151.124 40.3623 151.124 40.569V61.027C151.124 61.2681 151.055 61.4575 150.918 61.5953C150.78 61.7331 150.591 61.8019 150.349 61.8019H142.187C141.946 61.8019 141.756 61.7331 141.619 61.5953C141.481 61.4575 141.412 61.2681 141.412 61.027V40.569C141.412 40.3623 141.309 40.259 141.102 40.259H135.523C135.281 40.259 135.092 40.1901 134.954 40.0523C134.816 39.9146 134.748 39.7251 134.748 39.4841V32.7164C134.748 32.4753 134.816 32.2858 134.954 32.1481C135.092 32.0103 135.281 31.9414 135.523 31.9414H157.117Z" fill="#1A1A2E"/>
<path d="M122.159 62.1639C118.818 62.1639 116.149 61.2684 114.151 59.4775C112.188 57.6521 111.207 55.1551 111.207 51.9865V41.7058C111.207 38.5028 112.188 36.023 114.151 34.2665C116.149 32.4756 118.818 31.5801 122.159 31.5801C125.5 31.5801 128.169 32.4756 130.166 34.2665C132.164 36.0575 133.163 38.5372 133.163 41.7058C133.163 41.9469 133.094 42.1363 132.956 42.2741C132.818 42.4119 132.629 42.4807 132.388 42.4807L124.225 42.739C123.709 42.739 123.45 42.498 123.45 42.0158V40.9825C123.45 40.2593 123.02 39.8977 122.159 39.8977C121.332 39.8977 120.919 40.2593 120.919 40.9825V52.8131C120.919 53.192 121.022 53.4675 121.229 53.6397C121.436 53.7775 121.746 53.8463 122.159 53.8463C122.572 53.8463 122.882 53.7775 123.089 53.6397C123.33 53.4675 123.45 53.192 123.45 52.8131V51.6765C123.45 51.1944 123.709 50.9533 124.225 50.9533L132.388 51.2116C132.629 51.2116 132.818 51.2805 132.956 51.4182C133.094 51.556 133.163 51.7454 133.163 51.9865C133.163 55.1551 132.164 57.6521 130.166 59.4775C128.169 61.2684 125.5 62.1639 122.159 62.1639Z" fill="#1A1A2E"/>
<path d="M99.9901 61.8019C99.749 61.8019 99.5596 61.7331 99.4218 61.5953C99.2841 61.4575 99.2152 61.2681 99.2152 61.027V32.7164C99.2152 32.4753 99.2841 32.2858 99.4218 32.1481C99.5596 32.0103 99.749 31.9414 99.9901 31.9414H108.153C108.394 31.9414 108.583 32.0103 108.721 32.1481C108.859 32.2858 108.928 32.4753 108.928 32.7164V61.027C108.928 61.2681 108.859 61.4575 108.721 61.5953C108.583 61.7331 108.394 61.8019 108.153 61.8019H99.9901Z" fill="#1A1A2E"/>
<path d="M75.9363 61.8019C75.6952 61.8019 75.5058 61.7331 75.368 61.5953C75.2302 61.4575 75.1613 61.2681 75.1613 61.027V32.7164C75.1613 32.4753 75.2302 32.2858 75.368 32.1481C75.5058 32.0103 75.6952 31.9414 75.9363 31.9414H85.752C87.9563 31.9414 89.9022 32.3203 91.5898 33.078C93.3119 33.8013 94.6378 34.8173 95.5677 36.126C96.4977 37.4348 96.9626 38.9502 96.9626 40.6723V53.0711C96.9626 54.7932 96.4977 56.3086 95.5677 57.6173C94.6378 58.9261 93.3119 59.9593 91.5898 60.717C89.9022 61.4403 87.9563 61.8019 85.752 61.8019H75.9363ZM84.8738 53.1744C84.8738 53.3811 84.9771 53.4844 85.1837 53.4844L85.5454 53.4327C85.9242 53.3983 86.2686 53.295 86.5786 53.1228C86.8886 52.9506 87.0952 52.7439 87.1985 52.5028C87.233 52.4339 87.2502 52.3134 87.2502 52.1412V41.2922C87.2502 41.0167 87.078 40.7756 86.7336 40.569C86.4236 40.3623 86.0103 40.259 85.4937 40.259H85.1837C84.9771 40.259 84.8738 40.3623 84.8738 40.569V53.1744Z" fill="#1A1A2E"/>
<path d="M73.0176 39.4841C73.0176 39.7251 72.9487 39.9146 72.811 40.0523C72.6732 40.1901 72.4838 40.259 72.2427 40.259H63.0469C62.8402 40.259 62.7369 40.3623 62.7369 40.569V42.3771C62.7369 42.5838 62.8402 42.6871 63.0469 42.6871H67.6448C67.8859 42.6871 68.0753 42.756 68.2131 42.8937C68.3508 43.0315 68.4197 43.2209 68.4197 43.462V50.2297C68.4197 50.4708 68.3508 50.6602 68.2131 50.798C68.0753 50.9358 67.8859 51.0046 67.6448 51.0046H63.0469C62.8402 51.0046 62.7369 51.108 62.7369 51.3146V53.1744C62.7369 53.3811 62.8402 53.4844 63.0469 53.4844H72.2427C72.4838 53.4844 72.6732 53.5533 72.811 53.691C72.9487 53.8288 73.0176 54.0182 73.0176 54.2593V61.027C73.0176 61.2681 72.9487 61.4575 72.811 61.5953C72.6732 61.7331 72.4838 61.8019 72.2427 61.8019H53.7994C53.5583 61.8019 53.3689 61.7331 53.2312 61.5953C53.0934 61.4575 53.0245 61.2681 53.0245 61.027V32.7164C53.0245 32.4753 53.0934 32.2858 53.2312 32.1481C53.3689 32.0103 53.5583 31.9414 53.7994 31.9414H72.2427C72.4838 31.9414 72.6732 32.0103 72.811 32.1481C72.9487 32.2858 73.0176 32.4753 73.0176 32.7164V39.4841Z" fill="#1A1A2E"/>
<path d="M41.8982 61.8019C41.4504 61.8019 41.1749 61.5781 41.0716 61.1303L38.3852 51.3663C38.3507 51.1941 38.3163 51.108 38.2818 51.108C38.213 51.108 38.1785 51.2113 38.1785 51.4179V61.027C38.1785 61.2681 38.1096 61.4575 37.9719 61.5953C37.8341 61.7331 37.6447 61.8019 37.4036 61.8019H29.241C28.9999 61.8019 28.8105 61.7331 28.6727 61.5953C28.535 61.4575 28.4661 61.2681 28.4661 61.027V32.7164C28.4661 32.4753 28.535 32.2858 28.6727 32.1481C28.8105 32.0103 28.9999 31.9414 29.241 31.9414H40.5033C42.5009 31.9414 44.2746 32.3719 45.8245 33.233C47.4088 34.094 48.6314 35.2822 49.4924 36.7976C50.3535 38.2786 50.784 39.9834 50.784 41.9122C50.784 43.462 50.4912 44.8569 49.9057 46.0968C49.3202 47.3022 48.4936 48.3182 47.426 49.1448C47.3226 49.2137 47.2882 49.3515 47.3226 49.5581L50.9906 60.9237C51.0251 60.9926 51.0423 61.0959 51.0423 61.2337C51.0423 61.6125 50.8012 61.8019 50.319 61.8019H41.8982ZM38.4885 40.259C38.2818 40.259 38.1785 40.3623 38.1785 40.569V43.4103C38.1785 43.617 38.2818 43.7203 38.4885 43.7203H38.7985C40.3139 43.7203 41.0716 43.152 41.0716 42.0155C41.0716 40.8445 40.3139 40.259 38.7985 40.259H38.4885Z" fill="#1A1A2E"/>
<path d="M16.2955 31.9414C18.2931 31.9414 20.0668 32.3719 21.6167 33.233C23.201 34.0596 24.4236 35.2478 25.2847 36.7976C26.1457 38.3131 26.5762 40.0523 26.5762 42.0155C26.5762 44.8741 25.6635 47.1817 23.8382 48.9382C22.0472 50.6602 19.7052 51.5213 16.8121 51.5213H14.2807C14.0741 51.5213 13.9707 51.6246 13.9707 51.8312V61.027C13.9707 61.2681 13.9019 61.4575 13.7641 61.5953C13.6263 61.7331 13.4369 61.8019 13.1958 61.8019H5.03326C4.79217 61.8019 4.60274 61.7331 4.46498 61.5953C4.32721 61.4575 4.25833 61.2681 4.25833 61.027V32.7164C4.25833 32.4753 4.32721 32.2858 4.46498 32.1481C4.60274 32.0103 4.79217 31.9414 5.03326 31.9414H16.2955ZM14.5907 44.082C16.1061 44.082 16.8638 43.462 16.8638 42.2221C16.8638 40.9134 16.1061 40.259 14.5907 40.259H14.2807C14.0741 40.259 13.9707 40.3623 13.9707 40.569V43.772C13.9707 43.9786 14.0741 44.082 14.2807 44.082H14.5907Z" fill="#1A1A2E"/>
<path d="M198.46 0.361355C200.457 0.361355 202.231 0.791869 203.781 1.6529C205.365 2.47949 206.588 3.66771 207.449 5.21756C208.31 6.73298 208.74 8.47225 208.74 10.4354C208.74 13.294 207.828 15.6016 206.002 17.3581C204.211 19.0801 201.869 19.9412 198.976 19.9412H196.445C196.238 19.9412 196.135 20.0445 196.135 20.2511V29.4469C196.135 29.688 196.066 29.8775 195.928 30.0152C195.79 30.153 195.601 30.2219 195.36 30.2219H187.197C186.956 30.2219 186.767 30.153 186.629 30.0152C186.491 29.8775 186.422 29.688 186.422 29.4469V1.13628C186.422 0.895192 186.491 0.705766 186.629 0.568003C186.767 0.430238 186.956 0.361355 187.197 0.361355H198.46ZM196.755 12.5019C198.27 12.5019 199.028 11.8819 199.028 10.6421C199.028 9.33329 198.27 8.6789 196.755 8.6789H196.445C196.238 8.6789 196.135 8.78223 196.135 8.98887V12.1919C196.135 12.3986 196.238 12.5019 196.445 12.5019H196.755Z" fill="#1A1A2E"/>
<path d="M173.711 30.5835C170.404 30.5835 167.77 29.688 165.806 27.8971C163.843 26.0717 162.862 23.6092 162.862 20.5095V1.13628C162.862 0.895192 162.931 0.705766 163.068 0.568003C163.206 0.430238 163.396 0.361355 163.637 0.361355H171.799C172.04 0.361355 172.23 0.430238 172.367 0.568003C172.505 0.705766 172.574 0.895192 172.574 1.13628V21.1811C172.574 21.9043 172.953 22.266 173.711 22.266C174.4 22.266 174.744 21.9043 174.744 21.1811V1.13628C174.744 0.895192 174.813 0.705766 174.951 0.568003C175.088 0.430238 175.278 0.361355 175.519 0.361355H183.681C183.923 0.361355 184.112 0.430238 184.25 0.568003C184.387 0.705766 184.456 0.895192 184.456 1.13628V20.5095C184.456 23.6092 183.475 26.0717 181.512 27.8971C179.583 29.688 176.983 30.5835 173.711 30.5835Z" fill="#1A1A2E"/>
<path d="M150.1 30.5838C146.759 30.5838 144.09 29.6883 142.092 27.8974C140.129 26.072 139.147 23.575 139.147 20.4064V10.1257C139.147 6.92268 140.129 4.44291 142.092 2.68641C144.09 0.895471 146.759 0 150.1 0C153.44 0 156.11 0.895471 158.107 2.68641C160.105 4.47735 161.104 6.95712 161.104 10.1257C161.104 10.3668 161.035 10.5562 160.897 10.694C160.759 10.8318 160.57 10.9006 160.329 10.9006L152.166 11.1589C151.65 11.1589 151.391 10.9179 151.391 10.4357V9.40245C151.391 8.67918 150.961 8.31755 150.1 8.31755C149.273 8.31755 148.86 8.67918 148.86 9.40245V21.233C148.86 21.6118 148.963 21.8874 149.17 22.0596C149.376 22.1974 149.686 22.2662 150.1 22.2662C150.513 22.2662 150.823 22.1974 151.03 22.0596C151.271 21.8874 151.391 21.6118 151.391 21.233V20.0964C151.391 19.6143 151.65 19.3732 152.166 19.3732L160.329 19.6315C160.57 19.6315 160.759 19.7004 160.897 19.8381C161.035 19.9759 161.104 20.1653 161.104 20.4064C161.104 23.575 160.105 26.072 158.107 27.8974C156.11 29.6883 153.44 30.5838 150.1 30.5838Z" fill="#1A1A2E"/>
<path d="M106.024 30.2219C105.783 30.2219 105.594 30.153 105.456 30.0152C105.318 29.8775 105.249 29.688 105.249 29.4469V1.13628C105.249 0.895192 105.318 0.705766 105.456 0.568003C105.594 0.430238 105.783 0.361355 106.024 0.361355H115.84C118.044 0.361355 119.99 0.740207 121.678 1.49791C123.4 2.22118 124.726 3.23719 125.656 4.54596C126.585 5.85472 127.05 7.37014 127.05 9.0922V21.491C127.05 23.2131 126.585 24.7285 125.656 26.0373C124.726 27.346 123.4 28.3793 121.678 29.137C119.99 29.8602 118.044 30.2219 115.84 30.2219H106.024ZM114.962 21.5944C114.962 21.801 115.065 21.9043 115.272 21.9043L115.633 21.8527C116.012 21.8182 116.356 21.7149 116.666 21.5427C116.976 21.3705 117.183 21.1638 117.286 20.9227C117.321 20.8539 117.338 20.7333 117.338 20.5611V9.71214C117.338 9.43661 117.166 9.19552 116.821 8.98887C116.511 8.78223 116.098 8.6789 115.582 8.6789H115.272C115.065 8.6789 114.962 8.78223 114.962 8.98887V21.5944Z" fill="#1A1A2E"/>
<path d="M83.9266 30.2219C83.6855 30.2219 83.496 30.153 83.3583 30.0152C83.2205 29.8775 83.1516 29.688 83.1516 29.4469V1.13628C83.1516 0.895192 83.2205 0.705766 83.3583 0.568003C83.496 0.430238 83.6855 0.361355 83.9266 0.361355H92.0891C92.3302 0.361355 92.5196 0.430238 92.6574 0.568003C92.7952 0.705766 92.8641 0.895192 92.8641 1.13628V21.5944C92.8641 21.801 92.9674 21.9043 93.174 21.9043H102.576C102.818 21.9043 103.007 21.9732 103.145 22.111C103.283 22.2487 103.351 22.4382 103.351 22.6792V29.4469C103.351 29.688 103.283 29.8775 103.145 30.0152C103.007 30.153 102.818 30.2219 102.576 30.2219H83.9266Z" fill="#1A1A2E"/>
<path d="M72.3169 30.2219C71.8691 30.2219 71.5936 29.998 71.4903 29.5503L68.8038 19.7862C68.7694 19.614 68.735 19.5279 68.7005 19.5279C68.6316 19.5279 68.5972 19.6312 68.5972 19.8378V29.4469C68.5972 29.688 68.5283 29.8775 68.3906 30.0152C68.2528 30.153 68.0634 30.2219 67.8223 30.2219H59.6597C59.4186 30.2219 59.2292 30.153 59.0914 30.0152C58.9537 29.8775 58.8848 29.688 58.8848 29.4469V1.13628C58.8848 0.895192 58.9537 0.705766 59.0914 0.568003C59.2292 0.430238 59.4186 0.361355 59.6597 0.361355H70.922C72.9196 0.361355 74.6933 0.791869 76.2431 1.6529C77.8274 2.51393 79.0501 3.70215 79.9111 5.21756C80.7722 6.69853 81.2027 8.40337 81.2027 10.3321C81.2027 11.8819 80.9099 13.2768 80.3244 14.5167C79.7389 15.7221 78.9123 16.7381 77.8447 17.5647C77.7413 17.6336 77.7069 17.7714 77.7413 17.978L81.4093 29.3436C81.4438 29.4125 81.461 29.5158 81.461 29.6536C81.461 30.0324 81.2199 30.2219 80.7377 30.2219H72.3169ZM68.9072 8.6789C68.7005 8.6789 68.5972 8.78223 68.5972 8.98887V11.8303C68.5972 12.0369 68.7005 12.1402 68.9072 12.1402H69.2171C70.7326 12.1402 71.4903 11.572 71.4903 10.4354C71.4903 9.2644 70.7326 8.6789 69.2171 8.6789H68.9072Z" fill="#1A1A2E"/>
<path d="M45.8716 30.5838C42.4619 30.5838 39.7583 29.6883 37.7607 27.8974C35.7631 26.072 34.7643 23.5578 34.7643 20.3547V10.229C34.7643 6.99156 35.7631 4.47735 37.7607 2.68641C39.7583 0.895471 42.4619 0 45.8716 0C49.2813 0 51.9677 0.912692 53.9309 2.73808C55.9285 4.52902 56.9272 7.026 56.9272 10.229V20.3547C56.9272 23.5578 55.9285 26.072 53.9309 27.8974C51.9333 29.6883 49.2469 30.5838 45.8716 30.5838ZM45.8716 22.2662C46.3538 22.2662 46.6982 22.1629 46.9049 21.9563C47.1115 21.7152 47.2148 21.3191 47.2148 20.768V9.81574C47.2148 9.26468 47.1115 8.88583 46.9049 8.67918C46.6982 8.43809 46.3538 8.31755 45.8716 8.31755C45.3894 8.31755 45.0278 8.43809 44.7867 8.67918C44.5801 8.88583 44.4768 9.26468 44.4768 9.81574V20.768C44.4768 21.3191 44.5801 21.7152 44.7867 21.9563C45.0278 22.1629 45.3894 22.2662 45.8716 22.2662Z" fill="#1A1A2E"/>
<path d="M7.4393 30.2219C6.99156 30.2219 6.71603 29.998 6.61271 29.5503L0 1.2396V1.03296C0 0.585223 0.223868 0.361355 0.671603 0.361355H9.09247C9.60909 0.361355 9.88462 0.602443 9.91906 1.08462L11.3139 11.7269C11.3484 11.8647 11.4 11.9336 11.4689 11.9336C11.5722 11.9336 11.6411 11.8647 11.6756 11.7269L13.2771 1.08462C13.3115 0.602443 13.587 0.361355 14.1037 0.361355H20.4064C20.8886 0.361355 21.1641 0.602443 21.233 1.08462L23.0928 11.7786C23.1273 11.9164 23.1789 11.9853 23.2478 11.9853C23.3511 11.9508 23.42 11.8647 23.4545 11.7269L24.591 1.08462C24.6255 0.602443 24.901 0.361355 25.4176 0.361355H33.6318C34.1829 0.361355 34.4068 0.654104 34.3034 1.2396L28.0524 29.5503C27.949 29.998 27.6563 30.2219 27.1741 30.2219H20.0448C19.597 30.2219 19.3215 29.9808 19.2182 29.4986L17.3584 18.9079C17.3239 18.7357 17.255 18.6496 17.1517 18.6496C17.0828 18.6496 17.0312 18.7357 16.9967 18.9079L15.4985 29.4986C15.4641 29.9808 15.1886 30.2219 14.6719 30.2219H7.4393Z" fill="#1A1A2E"/>
</svg>
